# xmcd
#
# Track frame offsets:
#	150
#	13661
#	25854
#	42801
#	53003
#	62138
#	69536
#	83188
#	94940
#	106720
#	120501
#	132258
#	144129
#	156318
#	170693
#	181048
#	191702
#	203887
#	214525
#	222377
#
# Disc length: 3140 seconds
# Revision: 0
# Processed by: cddbd v1.5.2PL0 Copyright (c) Steve Scherf et al.
# Submitted via: dBpowerAMP V12.0
#
DISCID=150c4214
DTITLE=Various Artist - Méga Country [Cd 4]
DYEAR=1900
DGENRE=Country
TTITLE0=Willie Nelson - The Last Letter
TTITLE1=Johnny Cash - I Walk The Line
TTITLE2=Lynn Anderson - Blue Bayou
TTITLE3=Faron Young - Live Fast, Love Hard, Die Young
TTITLE4=Mickey Gilley - Suzie Q
TTITLE5=Merle Haggard - I Am A Lonesome Fugitive
TTITLE6=Red Forley and Ernst Tubb - Goodnight Irene
TTITLE7=Tennessee Ernie Ford and Kay S - I'll Never BE Free
TTITLE8=Conway Twitty - Linda On My Mind
TTITLE9=Doug Stone - Addicted To A Dollar
TTITLE10=Jeanne Pruett - Standing On The Promises
TTITLE11=Jim Reeves - Mexican Joe
TTITLE12=Hank Williams - Your Cheatin Heart
TTITLE13=Red Foley - (There Will Be) Peace In The Vall
TTITLE14=Charlie Walker - Pick Me Up On Your Way
TTITLE15=Kenny Rogers - She Even Woke Me Up To Say Goodby
TTITLE16=Moe Bandy - Good Old Boys
TTITLE17=Billie Joe Spears - I'm So Lonesome I Could Cry
TTITLE18=Don Gibson - Blue Blue Day
TTITLE19=Ferlin Husky - Country Music Is Here To Stay
EXTD=
EXTT0=
EXTT1=
EXTT2=
EXTT3=
EXTT4=
EXTT5=
EXTT6=
EXTT7=
EXTT8=
EXTT9=
EXTT10=
EXTT11=
EXTT12=
EXTT13=
EXTT14=
EXTT15=
EXTT16=
EXTT17=
EXTT18=
EXTT19=
PLAYORDER=
